#!OML:ASF H:\Pregnant\Project 1\Capture day 1\Session 1\femalepreg.ASF
:FULLY-SPECIFIED
:DEGREES
577
root -5.25393 15.2652 42.0519 -155.707 4.00941 184.279
lowerback -14.978 0.172419 -11.562
upperback -4.16278 2.85864 -3.01588
thorax 3.58256 1.6949 3.82414
lowerneck -21.1839 5.83779 5.14063
upperneck 34.2609 4.58715 0.00553348
head 15.8632 1.88839 -0.183497
rclavicle -2.18663e-014 -2.38542e-014
rhumerus -36.3782 -0.951074 -82.0068
rradius 35.0683
rwrist -1.32842
rhand -16.7838 -13.7611
rfingers 7.12502
rthumb 9.44393 -43.5295
lclavicle -2.18663e-014 -2.38542e-014
lhumerus -29.5865 -12.2684 78.2606
lradius 33.0761
lwrist 40.6285
lhand -30.7552 -5.94417
lfingers 7.12502
lthumb -4.04676 23.9971
rfemur -48.5509 12.5355 15.7671
rtibia 39.4374
rfoot -10.704 -4.06278
rtoes -8.43809
lfemur -40.9415 -12.37 -15.5132
ltibia 29.8049
lfoot -10.8964 9.54641
ltoes -5.8124
578
root -5.27214 15.2681 42.0654 -155.696 4.24178 184.267
lowerback -14.9931 0.216363 -11.6636
upperback -4.10896 2.93987 -3.0791
thorax 3.63485 1.72839 3.82812
lowerneck -20.9835 5.86971 5.15478
upperneck 34.4893 4.54715 0.0638992
head 15.9267 1.8607 -0.177734
rclavicle 1.59028e-015 -2.54444e-014
rhumerus -36.1008 -0.663461 -82.1364
rradius 35.564
rwrist -1.43953
rhand -16.8702 -13.8295
rfingers 7.12502
rthumb 9.36063 -43.6016
lclavicle 1.59028e-015 -2.54444e-014
lhumerus -29.3606 -11.9846 78.0344
lradius 33.2297
lwrist 40.894
lhand -30.7778 -5.8748
lfingers 7.12502
lthumb -4.06859 24.0661
rfemur -48.7546 12.352 15.8485
rtibia 39.5909
rfoot -10.4464 -4.27847
rtoes -8.01123
lfemur -40.8687 -12.3088 -15.6136
ltibia 29.637
lfoot -10.8621 9.63591
ltoes -5.31105
579
root -5.28989 15.2715 42.0782 -155.68 4.467 184.257
lowerback -15.0142 0.257934 -11.7645
upperback -4.06611 3.0186 -3.13385
thorax 3.67854 1.76195 3.84026
lowerneck -20.7637 5.90222 5.17074
upperneck 34.7095 4.50698 0.121754
head 15.9822 1.83276 -0.173071
rclavicle -1.47101e-014 1.33583e-013
rhumerus -35.846 -0.385162 -82.2512
rradius 36.0691
rwrist -1.60567
rhand -16.9737 -13.9178
rfingers 7.12502
rthumb 9.26068 -43.6944
lclavicle -1.47101e-014 1.33583e-013
lhumerus -29.1637 -11.7237 77.8342
lradius 33.3844
lwrist 41.1702
lhand -30.8132 -5.83302
lfingers 7.12502
lthumb -4.10273 24.1072
rfemur -48.9426 12.1842 15.9348
rtibia 39.7178
rfoot -10.1924 -4.62177
rtoes -7.7886
lfemur -40.7869 -12.2296 -15.7156
ltibia 29.4482
lfoot -10.8185 9.70322
ltoes -4.90197
580
root -5.3073 15.2761 42.0903 -155.658 4.67904 184.249
lowerback -15.0415 0.300129 -11.8484
upperback -4.0333 3.0981 -3.19542
thorax 3.71609 1.79743 3.83596
lowerneck -20.5343 5.9347 5.19967
upperneck 34.9221 4.45785 0.18798
head 16.0322 1.804 -0.169018
rclavicle -1.63003e-014 -4.45278e-014
rhumerus -35.6078 -0.146835 -82.3652
rradius 36.5688
rwrist -1.80865
rhand -17.1114 -13.976
rfingers 7.12502
rthumb 9.12785 -43.7584
lclavicle -1.63003e-014 -4.45278e-014
lhumerus -28.9851 -11.5123 77.6412
lradius 33.5417
lwrist 41.4509
lhand -30.866 -5.79447
lfingers 7.12502
lthumb -4.15376 24.1448
rfemur -49.1139 12.0317 16.0222
rtibia 39.8115
rfoot -9.94662 -5.08471
rtoes -7.75901
lfemur -40.7047 -12.1676 -15.8038
ltibia 29.2406
lfoot -10.7535 9.7751
ltoes -4.57341
581
root -5.32407 15.2816 42.1016 -155.631 4.8764 184.244
lowerback -15.0812 0.3394 -11.9253
upperback -4.00442 3.17461 -3.25194
thorax 3.75665 1.83163 3.83318
lowerneck -20.2942 5.96699 5.22692
upperneck 35.1221 4.40724 0.261281
head 16.0733 1.77568 -0.162108
rclavicle -2.3059e-014 3.33958e-014
rhumerus -35.3826 0.0718254 -82.471
rradius 37.0726
rwrist -2.05379
rhand -17.2754 -14.0207
rfingers 7.12502
rthumb 8.96959 -43.81
lclavicle -2.3059e-014 3.33958e-014
lhumerus -28.8217 -11.3344 77.4671
lradius 33.6947
lwrist 41.7297
lhand -30.9342 -5.79536
lfingers 7.12502
lthumb -4.21955 24.1426
rfemur -49.2627 11.9022 16.1119
rtibia 39.8693
rfoot -9.71257 -5.64972
rtoes -7.87477
lfemur -40.6222 -12.1123 -15.8791
ltibia 29.0188
lfoot -10.6692 9.84148
ltoes -4.3482
582
root -5.34021 15.288 42.1125 -155.599 5.0563 184.244
lowerback -15.1274 0.373904 -11.9956
upperback -3.97629 3.24423 -3.30067
thorax 3.80086 1.86214 3.83418
lowerneck -20.0642 6.00002 5.24867
upperneck 35.3158 4.3589 0.338708
head 16.1137 1.74864 -0.151625
rclavicle 5.36719e-014 -5.24792e-014
rhumerus -35.1618 0.278863 -82.5684
rradius 37.5811
rwrist -2.33113
rhand -17.443 -14.0944
rfingers 7.12502
rthumb 8.80785 -43.8906
lclavicle 5.36719e-014 -5.24792e-014
lhumerus -28.6634 -11.1798 77.3094
lradius 33.8436
lwrist 41.9975
lhand -31.0028 -5.76006
lfingers 7.12502
lthumb -4.28587 24.1766
rfemur -49.3908 11.798 16.2017
rtibia 39.8927
rfoot -9.50137 -6.27763
rtoes -8.03728
lfemur -40.546 -12.0647 -15.94
ltibia 28.7871
lfoot -10.5708 9.90066
ltoes -4.16033
583
root -5.35568 15.2949 42.1228 -155.565 5.21816 184.246
lowerback -15.1646 0.405435 -12.0556
upperback -3.96043 3.30745 -3.35033
thorax 3.82862 1.89158 3.82681
lowerneck -19.8294 6.03422 5.27354
upperneck 35.5072 4.30611 0.426025
head 16.1517 1.7213 -0.138389
rclavicle 5.1684e-014 -1.17681e-013
rhumerus -34.9657 0.460691 -82.6662
rradius 38.0944
rwrist -2.62157
rhand -17.614 -14.1412
rfingers 7.12502
rthumb 8.64287 -43.9443
lclavicle 5.1684e-014 -1.17681e-013
lhumerus -28.5325 -11.0664 77.1599
lradius 33.9929
lwrist 42.2541
lhand -31.0774 -5.75114
lfingers 7.12502
lthumb -4.35787 24.184
rfemur -49.4974 11.7209 16.287
rtibia 39.8887
rfoot -9.32475 -6.93807
rtoes -8.17862
lfemur -40.4758 -12.0163 -15.9946
ltibia 28.5522
lfoot -10.4725 9.94168
ltoes -3.96797
584
root -5.37046 15.3016 42.1327 -155.529 5.36133 184.251
lowerback -15.1932 0.428649 -12.1154
upperback -3.94995 3.35686 -3.38717
thorax 3.84707 1.91485 3.83019
lowerneck -19.6064 6.07077 5.28662
upperneck 35.6979 4.26003 0.516022
head 16.192 1.69561 -0.120263
rclavicle -2.3059e-014 -1.43125e-014
rhumerus -34.7853 0.64605 -82.7546
rradius 38.6221
rwrist -2.91783
rhand -17.7706 -14.1975
rfingers 7.12502
rthumb 8.49174 -44.0068
lclavicle -2.3059e-014 -1.43125e-014
lhumerus -28.4229 -10.9676 77.03
lradius 34.1408
lwrist 42.4915
lhand -31.1421 -5.73973
lfingers 7.12502
lthumb -4.42037 24.1941
rfemur -49.5861 11.6721 16.3681
rtibia 39.8644
rfoot -9.19768 -7.60579
rtoes -8.23985
lfemur -40.4087 -11.9491 -16.0504
ltibia 28.3208
lfoot -10.3811 9.94795
ltoes -3.79747
585
root -5.3846 15.3079 42.1423 -155.494 5.4859 184.257
lowerback -15.2184 0.446639 -12.1722
upperback -3.93953 3.39752 -3.41677
thorax 3.86459 1.93367 3.83796
lowerneck -19.3984 6.10703 5.29465
upperneck 35.8861 4.21456 0.608469
head 16.2347 1.67022 -0.0995502
rclavicle 5.4467e-014 -1.31993e-013
rhumerus -34.6161 0.821619 -82.8364
rradius 39.1637
rwrist -3.20759
rhand -17.9048 -14.2562
rfingers 7.12502
rthumb 8.36219 -44.0707
lclavicle 5.4467e-014 -1.31993e-013
lhumerus -28.3291 -10.9004 76.917
lradius 34.2914
lwrist 42.7157
lhand -31.1984 -5.73112
lfingers 7.12502
lthumb -4.47475 24.2016
rfemur -49.6569 11.6526 16.4426
rtibia 39.8253
rfoot -9.12417 -8.27151
rtoes -8.20956
lfemur -40.3438 -11.8516 -16.1159
ltibia 28.0995
lfoot -10.3076 9.91024
ltoes -3.64291
586
root -5.39817 15.3136 42.1515 -155.457 5.59728 184.269
lowerback -15.255 0.462581 -12.2161
upperback -3.91991 3.43498 -3.44412
thorax 3.89928 1.94912 3.84139
lowerneck -19.2174 6.14199 5.29993
upperneck 36.066 4.16907 0.703729
head 16.2797 1.64614 -0.0761249
rclavicle 2.18663e-014 1.59028e-015
rhumerus -34.4397 0.980025 -82.9169
rradius 39.7326
rwrist -3.52208
rhand -17.9599 -14.3932
rfingers 7.12502
rthumb 8.30904 -44.2097
lclavicle 2.18663e-014 1.59028e-015
lhumerus -28.2311 -10.8625 76.8088
lradius 34.4408
lwrist 42.9141
lhand -31.246 -5.72194
lfingers 7.12502
lthumb -4.52072 24.2098
rfemur -49.714 11.6658 16.5125
rtibia 39.772
rfoot -9.10354 -8.93648
rtoes -8.11927
lfemur -40.285 -11.7269 -16.1847
ltibia 27.8922
lfoot -10.2496 9.83814
ltoes -3.4926
